# xmcd
#
# Track frame offsets:
#	150
#	15998
#	30233
#	47598
#	65095
#	81568
#	99888
#	113467
#	128274
#	146757
#	162619
#	179038
#	193598
#	211662
#	225614
#	240073
#
# Disc length: 3441 seconds
#
# Revision: 1
# Processed by: cddbd v1.5.2PL0 Copyright (c) Steve Scherf et al.
# Submitted via: audiograbber 1.83.01
#
DISCID=c30d6f10
DTITLE=Various Artist - CDX 637
DYEAR=2016
DGENRE=Country
TTITLE0=Toby Keith - A Few More Cowboys
TTITLE1=Frankie Ballard - Cigarette 
TTITLE2=RaeLynn - Love Triangle 
TTITLE3=Luke Bryan - Move
TTITLE4=Aaron Goodvin - Woman In Love
TTITLE5=Shanw B Wells - As Long As I've Got  You
TTITLE6=Denny Strickland - Get A Grip
TTITLE7=Adairs Runn - Hungover You
TTITLE8=Sammy Sadler - In America
TTITLE9=Cody Hicks - Left Turn (051216RA)
TTITLE10=Alex Smith - Load It Up 
TTITLE11=Darryl Ryan - Not Enough Town
TTITLE12=Donovan Lee - CDX 637 - 13 - Donovan Lee - She Stays
TTITLE13=James Dupre - Stoned To Death
TTITLE14=Lonnie Spiker - Things Only A Fool Would Know
TTITLE15=Aaron Tracy - Timeless
EXTD=
EXTT0=
EXTT1=
EXTT2=
EXTT3=
EXTT4=
EXTT5=
EXTT6=
EXTT7=
EXTT8=
EXTT9=
EXTT10=
EXTT11=
EXTT12=
EXTT13=
EXTT14=
EXTT15=
PLAYORDER=
